<svg width="273" height="215" viewBox="0 0 273 215" fill="none" xmlns="http://www.w3.org/2000/svg">
<g clip-path="url(#clip0_1019_9238)">
<path d="M0.40625 175.061H50.6046" stroke="#16161C" stroke-width="0.812271" stroke-miterlimit="10"/>
<path d="M25.5039 149.961V200.16" stroke="#16161C" stroke-width="0.812271" stroke-miterlimit="10"/>
<path d="M25.5039 200.16C25.5039 200.16 33.8703 189.072 33.8703 175.061C33.8703 161.049 25.5039 149.961 25.5039 149.961" stroke="#16161C" stroke-width="0.812271" stroke-miterlimit="10"/>
<path d="M25.5054 200.16C39.3709 200.16 50.6046 188.926 50.6046 175.061C50.6046 161.195 39.3709 149.961 25.5054 149.961C11.64 149.961 0.40625 161.203 0.40625 175.061C0.40625 188.918 11.64 200.16 25.5054 200.16Z" stroke="#16161C" stroke-width="0.812271" stroke-miterlimit="10"/>
<path d="M25.5039 200.16C25.5039 200.16 42.2367 194.563 42.2367 175.061C42.2367 155.558 25.5039 149.961 25.5039 149.961" stroke="#16161C" stroke-width="0.812271" stroke-miterlimit="10"/>
<path d="M25.507 200.16C25.507 200.16 17.1406 189.072 17.1406 175.061C17.1406 161.049 25.507 149.961 25.507 149.961" stroke="#16161C" stroke-width="0.812271" stroke-miterlimit="10"/>
<path d="M25.5062 200.16C25.5062 200.16 8.77344 194.563 8.77344 175.061C8.77344 155.558 25.5062 149.961 25.5062 149.961" stroke="#16161C" stroke-width="0.812271" stroke-miterlimit="10"/>
<path d="M3.06152 186.302C5.73389 185.149 12.9144 182.704 25.5046 182.704C38.0948 182.704 45.2752 185.149 47.9476 186.302" stroke="#16161C" stroke-width="0.812271" stroke-miterlimit="10"/>
<path d="M8.98242 193.954C11.5898 192.736 16.7396 191.071 25.504 191.071C34.2684 191.071 39.3289 192.703 41.9525 193.922" stroke="#16161C" stroke-width="0.812271" stroke-miterlimit="10"/>
<path d="M3.06152 163.827C5.73389 164.98 12.9144 167.425 25.5046 167.425C38.0948 167.425 45.2752 164.98 47.9476 163.827" stroke="#16161C" stroke-width="0.812271" stroke-miterlimit="10"/>
<path d="M8.98242 156.167C11.5898 157.386 16.7396 159.051 25.504 159.051C34.2684 159.051 39.3289 157.418 41.9525 156.2" stroke="#16161C" stroke-width="0.812271" stroke-miterlimit="10"/>
<path d="M0.40625 175.061H50.6046" stroke="#16161C" stroke-width="0.812271" stroke-miterlimit="10"/>
<path d="M25.5039 149.961V200.16" stroke="#16161C" stroke-width="0.812271" stroke-miterlimit="10"/>
<path d="M25.5039 200.16C25.5039 200.16 33.8703 189.072 33.8703 175.061C33.8703 161.049 25.5039 149.961 25.5039 149.961" stroke="#16161C" stroke-width="0.812271" stroke-miterlimit="10"/>
<path d="M25.5054 200.16C39.3709 200.16 50.6046 188.926 50.6046 175.061C50.6046 161.195 39.3709 149.961 25.5054 149.961C11.64 149.961 0.40625 161.203 0.40625 175.061C0.40625 188.918 11.64 200.16 25.5054 200.16Z" stroke="#16161C" stroke-width="0.812271" stroke-miterlimit="10"/>
<path d="M25.5039 200.16C25.5039 200.16 42.2367 194.563 42.2367 175.061C42.2367 155.558 25.5039 149.961 25.5039 149.961" stroke="#16161C" stroke-width="0.812271" stroke-miterlimit="10"/>
<path d="M25.507 200.16C25.507 200.16 17.1406 189.072 17.1406 175.061C17.1406 161.049 25.507 149.961 25.507 149.961" stroke="#16161C" stroke-width="0.812271" stroke-miterlimit="10"/>
<path d="M25.5062 200.16C25.5062 200.16 8.77344 194.563 8.77344 175.061C8.77344 155.558 25.5062 149.961 25.5062 149.961" stroke="#16161C" stroke-width="0.812271" stroke-miterlimit="10"/>
<path d="M3.06152 186.302C5.73389 185.149 12.9144 182.704 25.5046 182.704C38.0948 182.704 45.2752 185.149 47.9476 186.302" stroke="#16161C" stroke-width="0.812271" stroke-miterlimit="10"/>
<path d="M8.98242 193.954C11.5898 192.736 16.7396 191.071 25.504 191.071C34.2684 191.071 39.3289 192.703 41.9525 193.922" stroke="#16161C" stroke-width="0.812271" stroke-miterlimit="10"/>
<path d="M3.06152 163.827C5.73389 164.98 12.9144 167.425 25.5046 167.425C38.0948 167.425 45.2752 164.98 47.9476 163.827" stroke="#16161C" stroke-width="0.812271" stroke-miterlimit="10"/>
<path d="M8.98242 156.167C11.5898 157.386 16.7396 159.051 25.504 159.051C34.2684 159.051 39.3289 157.418 41.9525 156.2" stroke="#16161C" stroke-width="0.812271" stroke-miterlimit="10"/>
<path d="M238.289 213.627C252.146 213.627 263.388 202.394 263.388 188.528C263.388 174.663 252.146 163.429 238.289 163.429C224.431 163.429 213.189 174.663 213.189 188.528C213.189 202.394 224.423 213.627 238.289 213.627Z" stroke="#16161C" stroke-width="0.812271" stroke-miterlimit="10"/>
<path d="M255.052 194.368C252.623 201.297 246.028 206.284 238.287 206.284C230.546 206.284 223.95 201.297 221.521 194.368" stroke="#16161C" stroke-width="0.812271" stroke-miterlimit="10"/>
<path d="M253.403 194.06C253.403 194.06 254.809 194.799 256.425 194.669" stroke="#16161C" stroke-width="0.812271" stroke-miterlimit="10"/>
<path d="M223.027 194.06C223.027 194.06 221.621 194.799 220.005 194.669" stroke="#16161C" stroke-width="0.812271" stroke-miterlimit="10"/>
<path d="M244.559 189.998C246.785 189.998 248.588 186.205 248.588 181.518C248.588 176.831 246.785 173.038 244.559 173.038C242.334 173.038 240.53 176.84 240.53 181.518C240.53 186.197 242.334 189.998 244.559 189.998Z" fill="#16161C"/>
<path d="M232.017 189.998C234.243 189.998 236.046 186.205 236.046 181.518C236.046 176.831 234.243 173.038 232.017 173.038C229.792 173.038 227.988 176.84 227.988 181.518C227.988 186.197 229.792 189.998 232.017 189.998Z" fill="#16161C"/>
<path d="M48.2256 42.23V88.3182C48.2256 91.8191 51.0604 94.6539 54.5613 94.6539H94.988C98.4889 94.6539 101.324 97.4888 101.324 100.99V123.246C101.324 126.747 104.159 129.582 107.659 129.582H150.677C154.178 129.582 157.013 132.416 157.013 135.917V151.895C157.013 155.396 159.848 158.23 163.349 158.23H218.283" stroke="#16161C" stroke-width="0.812271" stroke-miterlimit="10"/>
<path d="M208.558 68.5801V135.259C208.558 138.76 205.723 141.595 202.222 141.595H155.443C151.943 141.595 149.108 144.43 149.108 147.931V167.255C149.108 170.756 146.265 173.59 142.772 173.59H64.2579C60.757 173.59 57.9222 170.756 57.9222 167.255V129.184C57.9222 125.683 55.0874 122.848 51.5865 122.848H20.9639" stroke="#16161C" stroke-width="0.812271" stroke-miterlimit="10"/>
<path d="M77.8643 65.1523V143.65C77.8643 147.151 80.6991 149.986 84.2 149.986H127.47C130.971 149.986 133.805 147.151 133.805 143.65V120.963C133.805 117.463 136.64 114.628 140.141 114.628H232.878" stroke="#16161C" stroke-width="0.812271" stroke-miterlimit="10"/>
<path d="M208.56 70.4806C209.608 70.4806 210.461 69.6277 210.461 68.5799C210.461 67.5321 209.608 66.6792 208.56 66.6792C207.512 66.6792 206.659 67.5321 206.659 68.5799C206.659 69.6277 207.512 70.4806 208.56 70.4806Z" fill="#16161C"/>
<path d="M232.877 116.528C233.925 116.528 234.778 115.676 234.778 114.628C234.778 113.58 233.925 112.727 232.877 112.727C231.829 112.727 230.977 113.58 230.977 114.628C230.977 115.676 231.829 116.528 232.877 116.528Z" fill="#16161C"/>
<path d="M218.273 160.115C219.321 160.115 220.173 159.262 220.173 158.214C220.173 157.166 219.321 156.313 218.273 156.313C217.225 156.313 216.372 157.166 216.372 158.214C216.372 159.262 217.225 160.115 218.273 160.115Z" fill="#16161C"/>
<path d="M20.9632 124.748C22.011 124.748 22.8639 123.896 22.8639 122.848C22.8639 121.8 22.011 120.947 20.9632 120.947C19.9154 120.947 19.0625 121.8 19.0625 122.848C19.0625 123.896 19.9154 124.748 20.9632 124.748Z" fill="#16161C"/>
<path d="M77.8636 67.0448C78.9114 67.0448 79.7643 66.1919 79.7643 65.1441C79.7643 64.0963 78.9114 63.2434 77.8636 63.2434C76.8158 63.2434 75.9629 64.0963 75.9629 65.1441C75.9629 66.1919 76.8158 67.0448 77.8636 67.0448Z" fill="#16161C"/>
<path d="M48.2259 44.1225C49.2737 44.1225 50.1266 43.2696 50.1266 42.2218C50.1266 41.1739 49.2737 40.321 48.2259 40.321C47.1781 40.321 46.3252 41.1739 46.3252 42.2218C46.3252 43.2696 47.1781 44.1225 48.2259 44.1225Z" fill="#16161C"/>
<path d="M146.428 99.4057C164.363 99.4057 178.902 84.8661 178.902 66.9311C178.902 48.9962 164.363 34.4565 146.428 34.4565C128.493 34.4565 113.953 48.9962 113.953 66.9311C113.953 84.8661 128.493 99.4057 146.428 99.4057Z" stroke="#16161C" stroke-width="0.812271" stroke-miterlimit="10"/>
<path d="M146.429 108.698C169.498 108.698 188.196 89.9995 188.196 66.931C188.196 43.8625 169.498 25.1641 146.429 25.1641C123.361 25.1641 104.662 43.8625 104.662 66.931C104.662 89.9995 123.361 108.698 146.429 108.698Z" stroke="#16161C" stroke-width="0.812271" stroke-miterlimit="10"/>
<path d="M132.271 81.0891L160.603 52.7571" stroke="#16161C" stroke-width="0.812271" stroke-miterlimit="10"/>
<path d="M139.774 80.2279L158.254 61.7488" stroke="#16161C" stroke-width="0.812271" stroke-miterlimit="10"/>
<path d="M119.153 98.5448L107.172 110.526L102.835 106.188L114.816 94.2073" stroke="#16161C" stroke-width="0.812271" stroke-miterlimit="10"/>
<path d="M100.835 104.174L109.169 112.508L75.6871 145.99C73.3802 148.296 69.6438 148.296 67.3532 145.99C65.0463 143.683 65.0463 139.954 67.3532 137.656L100.835 104.174Z" fill="white" stroke="#16161C" stroke-width="0.812271" stroke-miterlimit="10"/>
<path d="M98.7891 23.2146V39.4356H99.6826V23.2146C99.5364 23.2308 99.382 23.2471 99.2358 23.2471C99.0896 23.2308 98.9353 23.2308 98.7891 23.2146Z" fill="#16161C"/>
<path d="M99.6826 16.2373V0H98.7891V16.221C98.9353 16.2048 99.0896 16.1886 99.2358 16.1886C99.382 16.2048 99.5282 16.2048 99.6826 16.2373Z" fill="#16161C"/>
<path d="M102.736 20.1686H118.957V19.2751H102.736C102.753 19.4214 102.769 19.5757 102.769 19.7219C102.753 19.8681 102.753 20.0224 102.736 20.1686Z" fill="#16161C"/>
<path d="M95.7347 19.2751H79.5137V20.1686H95.7347C95.7185 20.0224 95.7022 19.8681 95.7022 19.7219C95.7185 19.5757 95.7185 19.4214 95.7347 19.2751Z" fill="#16161C"/>
<path d="M97.0752 16.9278L85.6059 5.4585L84.9805 6.08394L96.4497 17.5532C96.6284 17.3258 96.8477 17.1227 97.0752 16.9278Z" fill="#16161C"/>
<path d="M101.395 22.508L112.864 33.9773L113.489 33.3518L102.02 21.8826C101.841 22.11 101.622 22.3293 101.395 22.508Z" fill="#16161C"/>
<path d="M102.02 17.5776L113.489 6.10836L112.864 5.48291L101.395 16.9522C101.622 17.1309 101.841 17.3339 102.02 17.5776Z" fill="#16161C"/>
<path d="M96.4497 21.8826L84.9805 33.3518L85.6059 33.9773L97.0752 22.508C96.8477 22.3293 96.6284 22.11 96.4497 21.8826Z" fill="#16161C"/>
<path d="M23.7594 78.6116L26.0662 84.6305L32.0933 86.9373L26.0662 89.2686L23.7594 95.2794L21.4363 89.2686L15.4336 86.9373L21.4606 84.6305L23.7675 78.6116H23.7594Z" fill="#16161C"/>
<path d="M160.603 166.727L162.91 172.746L168.937 175.053L162.91 177.359L160.603 183.378L158.28 177.376L152.27 175.053L158.28 172.746L160.603 166.727Z" fill="#16161C"/>
<path d="M196.545 22.0125L198.851 28.0395L204.878 30.3464L198.851 32.6532L196.545 38.6721L194.221 32.6532L188.219 30.3464L194.221 28.0395L196.545 22.0125Z" fill="#16161C"/>
<path d="M248.686 48.9392H247.581V97.8298H248.686V48.9392Z" fill="#16161C"/>
<path d="M272.589 73.9572V72.8525H223.698V73.9572H272.589Z" fill="#16161C"/>
<path d="M231.23 55.7136L230.45 56.4934L265.02 91.0637L265.8 90.2839L231.23 55.7136Z" fill="#16161C"/>
<path d="M265.816 56.4934L265.036 55.7136L230.466 90.2839L231.246 91.0637L265.816 56.4934Z" fill="#16161C"/>
<path d="M248.124 77.7749C250.536 77.7749 252.494 75.8174 252.494 73.4049C252.494 70.9925 250.536 69.0349 248.124 69.0349C245.711 69.0349 243.754 70.9925 243.754 73.4049C243.754 75.8174 245.711 77.7749 248.124 77.7749Z" fill="#16161C"/>
</g>
<defs>
<clipPath id="clip0_1019_9238">
<rect width="272.59" height="214.033" fill="white"/>
</clipPath>
</defs>
</svg>
