<?xml version="1.0" encoding="utf-8"?>
<!-- Generator: Adobe Illustrator 24.3.0, SVG Export Plug-In . SVG Version: 6.00 Build 0)  -->
<svg version="1.1" id="illustrations" xmlns="http://www.w3.org/2000/svg" xmlns:xlink="http://www.w3.org/1999/xlink" x="0px"
	 y="0px" viewBox="0 0 2000 2000" style="enable-background:new 0 0 2000 2000;" xml:space="preserve">
<style type="text/css">
	.st0{fill:#FFFFFF;stroke:#231F20;stroke-width:5;stroke-miterlimit:10;}
	.st1{fill:none;stroke:#231F20;stroke-width:5;stroke-miterlimit:10;}
	.st2{fill:#231F20;}
	.st3{fill:#231F20;stroke:#231F20;stroke-width:5;stroke-linejoin:round;stroke-miterlimit:10;}
	.st4{fill:#FFFFFF;stroke:#231F20;stroke-width:5;stroke-linejoin:round;stroke-miterlimit:10;}
	.st5{fill:#231F20;stroke:#231F20;stroke-width:5;stroke-miterlimit:10;}
	.st6{clip-path:url(#SVGID_2_);fill:#FFFFFF;stroke:#231F20;stroke-width:5;stroke-miterlimit:10;}
	.st7{clip-path:url(#SVGID_4_);fill:none;stroke:#FFFFFF;stroke-width:5;stroke-miterlimit:10;}
	.st8{fill:#FFFFFF;stroke:#231F20;stroke-width:5;stroke-linecap:round;stroke-linejoin:round;stroke-miterlimit:10;}
	.st9{fill:#231F20;stroke:#231F20;stroke-width:5;stroke-linecap:round;stroke-linejoin:round;stroke-miterlimit:10;}
	.st10{fill:#FFFFFF;stroke:#FFFFFF;stroke-width:5;stroke-linecap:round;stroke-linejoin:round;stroke-miterlimit:10;}
	.st11{fill:none;stroke:#231F20;stroke-width:5;stroke-linecap:round;stroke-linejoin:round;stroke-miterlimit:10;}
	.st12{fill:none;stroke:#FFFFFF;stroke-width:5;stroke-linecap:round;stroke-linejoin:round;stroke-miterlimit:10;}
	.st13{fill:none;stroke:#231F20;stroke-width:2;stroke-linecap:round;stroke-linejoin:round;}
	.st14{fill:none;stroke:#231F20;stroke-width:2;stroke-linecap:round;stroke-linejoin:round;stroke-dasharray:0,9.9996;}
	
		.st15{fill:none;stroke:#231F20;stroke-width:2;stroke-linecap:round;stroke-linejoin:round;stroke-miterlimit:10;stroke-dasharray:0,10;}
	
		.st16{fill:none;stroke:#231F20;stroke-width:3;stroke-linecap:round;stroke-linejoin:round;stroke-miterlimit:10;stroke-dasharray:0,10;}
	.st17{clip-path:url(#SVGID_6_);fill:#FFFFFF;}
	.st18{fill:#231F20;stroke:#FFFFFF;stroke-width:5;stroke-miterlimit:10;}
	.st19{fill:#FFFFFF;}
	.st20{fill:none;stroke:#231F20;stroke-width:8;stroke-linecap:round;stroke-linejoin:round;stroke-miterlimit:10;}
</style>
<g>
	<line class="st1" x1="506.7" y1="1325.9" x2="836.7" y2="1325.9"/>
	<line class="st1" x1="671.7" y1="1160.8" x2="671.7" y2="1490.9"/>
	<path class="st1" d="M671.7,1490.9c0,0,55-72.9,55-165s-55-165-55-165"/>
	<circle class="st1" cx="671.7" cy="1325.9" r="165"/>
	<path class="st1" d="M671.7,1490.9c0,0,110-36.8,110-165s-110-165-110-165"/>
	<path class="st1" d="M671.7,1490.9c0,0-55-72.9-55-165s55-165,55-165"/>
	<path class="st1" d="M671.7,1490.9c0,0-110-36.8-110-165s110-165,110-165"/>
	<path class="st1" d="M524.1,1399.8c17.6-7.6,64.8-23.7,147.6-23.7c82.8,0,130,16.1,147.6,23.7"/>
	<path class="st1" d="M563.1,1450.1c17.1-8.1,51-19,108.6-19c57.2,0,90.9,10.7,108.2,18.8"/>
	<path class="st1" d="M524.1,1252c17.6,7.6,64.8,23.7,147.6,23.7c82.8,0,130-16.1,147.6-23.7"/>
	<path class="st1" d="M563.1,1201.6c17.1,8.1,51,19,108.6,19c57.2,0,90.9-10.7,108.2-18.8"/>
</g>
<g>
	<rect x="386" y="579.5" class="st2" width="4.8" height="213.7"/>
	
		<rect x="386" y="579.5" transform="matrix(-1.836970e-16 1 -1 -1.836970e-16 1074.749 297.9985)" class="st2" width="4.8" height="213.7"/>
	
		<rect x="386" y="579.5" transform="matrix(0.7071 -0.7071 0.7071 0.7071 -371.5871 475.657)" class="st2" width="4.8" height="213.7"/>
	
		<rect x="386" y="579.5" transform="matrix(0.7071 0.7071 -0.7071 0.7071 599.092 -73.5886)" class="st2" width="4.8" height="213.7"/>
	<circle class="st2" cx="388.4" cy="686.4" r="19.1"/>
</g>
<g>
	<ellipse class="st1" cx="1339.8" cy="572" rx="302.1" ry="64.5"/>
	<ellipse class="st1" cx="1339.8" cy="636.5" rx="302.1" ry="64.5"/>
	<ellipse class="st1" cx="1339.8" cy="443" rx="302.1" ry="64.5"/>
	<ellipse class="st1" cx="1339.8" cy="507.5" rx="302.1" ry="64.5"/>
	<ellipse class="st1" cx="1339.8" cy="701.1" rx="302.1" ry="64.5"/>
	<ellipse class="st1" cx="1339.8" cy="765.6" rx="302.1" ry="64.5"/>
	<ellipse class="st1" cx="1339.8" cy="830.1" rx="302.1" ry="64.5"/>
	<ellipse class="st1" cx="1339.8" cy="894.6" rx="302.1" ry="64.5"/>
</g>
<g>
	<path class="st0" d="M388.4,966.1h1008.4v262.5c0,16.6-13.4,30-30,30H418.4c-16.6,0-30-13.4-30-30V966.1z"/>
	<g>
		<path class="st0" d="M570.4,1069.8H863c10.3,0,18.6,8.3,18.6,18.6v60.8c0,10.3-8.3,18.6-18.6,18.6H570.4
			c-10.3,0-18.6-8.3-18.6-18.6v-60.8C551.8,1078.1,560.1,1069.8,570.4,1069.8z"/>
		<path class="st5" d="M922.1,1069.8h292.6c10.3,0,18.6,8.3,18.6,18.6v60.8c0,10.3-8.3,18.6-18.6,18.6H922.1
			c-10.3,0-18.6-8.3-18.6-18.6v-60.8C903.5,1078.1,911.8,1069.8,922.1,1069.8z"/>
	</g>
	<path class="st0" d="M418.4,845.3h948.4c16.6,0,30,13.4,30,30v90.9H388.4v-90.9C388.4,858.7,401.8,845.3,418.4,845.3z"/>
	<circle class="st1" cx="461" cy="905.7" r="19.1"/>
	<circle class="st1" cx="527" cy="905.7" r="19.1"/>
	<circle class="st1" cx="593" cy="905.7" r="19.1"/>
</g>
<g>
	<path class="st0" d="M1560.7,620.9v-93.1c0-15.3-12.4-27.8-27.8-27.8H580.1c-15.3,0-27.8,12.4-27.8,27.8v93.1v98.6
		c0,15.3,12.4,27.8,27.8,27.8H1533c15.3,0,27.8-12.4,27.8-27.8V620.9z"/>
	<line class="st1" x1="1339.8" y1="500" x2="1339.8" y2="747.3"/>
	<g>
		<circle class="st5" cx="625" cy="560.4" r="19.1"/>
		<circle class="st5" cx="691" cy="560.4" r="19.1"/>
		<circle class="st5" cx="757" cy="560.4" r="19.1"/>
	</g>
</g>
<g>
	<path class="st5" d="M1497.5,1604h193.2c15.3,0,27.8-12.4,27.8-27.8v-98.6v-93.1c0-15.3-12.4-27.8-27.8-27.8h-193.2V1604z"/>
	<path class="st0" d="M1497.5,1356.7H737.9c-15.3,0-27.8,12.4-27.8,27.8v93.1v98.6c0,15.3,12.4,27.8,27.8,27.8h759.7V1356.7z"/>
	<circle class="st1" cx="782.7" cy="1417.1" r="19.1"/>
	<circle class="st1" cx="848.7" cy="1417.1" r="19.1"/>
	<circle class="st1" cx="914.7" cy="1417.1" r="19.1"/>
</g>
<g>
	<path class="st2" d="M1606.2,1197.9v65h3.6v-65c-0.6,0.1-1.2,0.1-1.8,0.1C1607.4,1198,1606.8,1198,1606.2,1197.9z"/>
	<path class="st2" d="M1609.8,1169.9v-65h-3.6v65c0.6-0.1,1.2-0.1,1.8-0.1C1608.6,1169.8,1609.2,1169.9,1609.8,1169.9z"/>
	<path class="st2" d="M1622,1185.7h65v-3.6h-65c0.1,0.6,0.1,1.2,0.1,1.8C1622.1,1184.5,1622,1185.1,1622,1185.7z"/>
	<path class="st2" d="M1594,1182.1h-65v3.6h65c-0.1-0.6-0.1-1.2-0.1-1.8C1593.9,1183.3,1593.9,1182.7,1594,1182.1z"/>
	<path class="st2" d="M1599.4,1172.8l-45.9-45.9l-2.5,2.5l45.9,45.9C1597.6,1174.3,1598.4,1173.5,1599.4,1172.8z"/>
	<path class="st2" d="M1616.6,1195l45.9,45.9l2.5-2.5l-45.9-45.9C1618.4,1193.5,1617.6,1194.3,1616.6,1195z"/>
	<path class="st2" d="M1619.1,1175.3l45.9-45.9l-2.5-2.5l-45.9,45.9C1617.6,1173.5,1618.4,1174.3,1619.1,1175.3z"/>
	<path class="st2" d="M1596.8,1192.5l-45.9,45.9l2.5,2.5l45.9-45.9C1598.4,1194.3,1597.6,1193.5,1596.8,1192.5z"/>
</g>
</svg>
